<svg width="16" height="16" viewBox="0 0 16 16" fill="none" xmlns="http://www.w3.org/2000/svg">
<path d="M8.00002 0.666626C3.93335 0.666626 0.666687 3.93329 0.666687 7.99996C0.666687 12.0666 3.93335 15.3333 8.00002 15.3333C12.0667 15.3333 15.3334 12.0666 15.3334 7.99996C15.3334 3.99996 12.0667 0.666626 8.00002 0.666626ZM9.86669 5.33329C10.4 5.33329 10.8 5.73329 10.8 6.26663C10.8 6.79996 10.4 7.19996 9.86669 7.19996C9.33335 7.19996 8.93335 6.79996 8.93335 6.26663C8.93335 5.73329 9.40002 5.33329 9.86669 5.33329ZM6.20002 5.33329C6.66669 5.33329 7.06669 5.79996 7.06669 6.26663C7.06669 6.73329 6.60002 7.13329 6.13336 7.13329C5.66669 7.13329 5.26669 6.66663 5.26669 6.19996C5.26669 5.66663 5.66669 5.26663 6.20002 5.33329ZM9.93335 11H6.13336C5.60002 11 5.20002 10.6 5.20002 10.0666C5.20002 9.53329 5.60002 9.13329 6.13336 9.13329H9.93335C10.4667 9.13329 10.8667 9.53329 10.8667 10.0666C10.8667 10.6 10.4 11 9.93335 11Z" fill="#FFDE30"/>
<path opacity="0.16" d="M7.06666 6.26659C7.06666 5.79992 6.73333 5.33325 6.2 5.33325C5.73333 5.33325 5.26666 5.66659 5.26666 6.19992C5.26666 6.66659 5.6 7.13325 6.13333 7.13325C6.6 7.19992 6.99999 6.79992 7.06666 6.26659Z" fill="#FFDE30"/>
<path opacity="0.16" d="M9.86667 7.13327C10.4 7.13327 10.8 6.73327 10.8 6.19993C10.8 5.6666 10.4 5.2666 9.86667 5.2666C9.33334 5.2666 9 5.73327 9 6.2666C9 6.79993 9.4 7.13327 9.86667 7.13327Z" fill="#FFDE30"/>
<path opacity="0.08" d="M6.13335 11H9.93334C10.4667 11 10.8667 10.6 10.8667 10.0666C10.8667 9.5333 10.4667 9.1333 9.93334 9.1333H6.13335C5.66668 9.1333 5.20001 9.5333 5.20001 10.0666C5.20001 10.6 5.60001 11 6.13335 11Z" fill="#FFDE30"/>
</svg>
