<svg width="24" height="24" viewBox="0 0 24 24" fill="none" xmlns="http://www.w3.org/2000/svg">
<path d="M12 1C5.9 1 1 5.9 1 12C1 18.1 5.9 23 12 23C18.1 23 23 18.1 23 12C23 6 18.1 1 12 1ZM13.8 8.5L15.2 7.6C15.8 7.2 16.7 7.3 17.1 8C17.5 8.6 17.4 9.5 16.7 9.9L15.3 10.8C15.1 11 14.8 11 14.5 11C14.1 11 13.6 10.8 13.4 10.4C13 9.8 13.2 9 13.8 8.5ZM7.1 8C7.5 7.4 8.4 7.2 9 7.6L10.4 8.5C11 8.9 11.2 9.8 10.8 10.4C10.5 10.8 10.1 11 9.7 11C9.4 11 9.2 10.9 8.9 10.8L7.5 9.9C6.8 9.4 6.7 8.6 7.1 8ZM17.6 16.9C17.6 16.9 18.7 16.3 19.8 16C19.6 16.5 19.3 16.9 18.9 17.4C17.8 17.7 17 18.2 16.6 18.3C16.5 18.3 16.5 18.4 16.4 18.4C14.2 20.2 9.8 20.7 7.7 18.6C7.6 18.5 7.6 18.5 7.5 18.5L5.3 17.8C5 17.4 4.7 17 4.4 16.6C5.4 16.9 6.5 17.3 6.5 17.3C6.7 17.4 6.9 17.2 6.9 17L6.8 14.2C6.8 14.1 6.7 14 6.6 13.9C6.6 13.9 4.2 13.1 3.3 12.8C3.3 12.6 3.3 12.4 3.3 12.1C3.3 11.9 3.3 11.7 3.3 11.6C3.9 11.8 7.4 13.4 7.4 13.4C7.5 13.5 7.7 13.5 7.8 13.4C10.1 12.5 13.1 11.8 16 13.3C16.1 13.4 16.3 13.4 16.5 13.3C16.5 13.3 19.8 11.6 20.6 11.3C20.6 11.6 20.6 11.8 20.6 12.1C20.6 12.2 20.6 12.4 20.6 12.5C19.6 12.8 17.4 13.8 17.4 13.8C17.3 13.8 17.2 13.9 17.2 14.1L17.1 16.7C17.2 16.8 17.4 17 17.6 16.9Z" fill="#FF0000"/>
<path opacity="0.16" d="M13.8 8.49992L15.2 7.59992C15.8 7.19992 16.7 7.29992 17.1 7.99992C17.5 8.59992 17.4 9.49992 16.7 9.89992L15.3 10.7999C15.1 10.9999 14.8 10.9999 14.5 10.9999C14.1 10.9999 13.6 10.7999 13.4 10.3999C13 9.79992 13.2 8.99992 13.8 8.49992Z" fill="#FF0000"/>
<path opacity="0.16" d="M7.10004 7.99995C7.50004 7.39995 8.40005 7.19995 9.00005 7.59995L10.4 8.49995C11 8.89995 11.2 9.79995 10.8 10.3999C10.5 10.7999 10.1 10.9999 9.70004 10.9999C9.40004 10.9999 9.20005 10.8999 8.90005 10.7999L7.50005 9.89995C6.80005 9.39995 6.70004 8.59995 7.10004 7.99995Z" fill="#FF0000"/>
<path opacity="0.08" d="M17.6001 16.9C17.6001 16.9 18.7 16.3 19.8 16C19.6 16.5 19.3001 16.9 18.9001 17.4C17.8001 17.7 17.0001 18.2 16.6001 18.3C16.5001 18.3 16.5001 18.4 16.4001 18.4C14.2001 20.2 9.80005 20.7 7.70005 18.6C7.60005 18.5 7.60005 18.5 7.50005 18.5L5.30005 17.8C5.00005 17.4 4.70005 17 4.40005 16.6C5.40005 16.9 6.50005 17.3 6.50005 17.3C6.70005 17.4 6.90005 17.2 6.90005 17L6.80005 14.2C6.80005 14.1 6.70005 14 6.60005 13.9C6.60005 13.9 4.20005 13.1 3.30005 12.8C3.30005 12.6 3.30005 12.4 3.30005 12.1C3.30005 11.9 3.30005 11.7 3.30005 11.6C3.90005 11.8 7.40005 13.4 7.40005 13.4C7.50005 13.5 7.70005 13.5 7.80005 13.4C10.1 12.5 13.1001 11.8 16.0001 13.3C16.1001 13.4 16.3001 13.4 16.5001 13.3C16.5001 13.3 19.8001 11.6 20.6001 11.3C20.6001 11.6 20.6001 11.8 20.6001 12.1C20.6001 12.2 20.6001 12.4 20.6001 12.5C19.6001 12.8 17.4001 13.8 17.4001 13.8C17.3001 13.8 17.2001 13.9 17.2001 14.1L17.1001 16.7C17.2001 16.8 17.4001 17 17.6001 16.9Z" fill="#FF0000"/>
</svg>
