<svg width="32" height="32" viewBox="0 0 32 32" fill="none" xmlns="http://www.w3.org/2000/svg">
<path d="M22 13.3333C21.831 13.3333 21.6293 13.3596 21.4373 13.3946C20.7393 11.0039 18.5543 9.33325 16 9.33325C13.4453 9.33325 11.2606 11.0039 10.5626 13.3946C10.3706 13.3596 10.169 13.3333 9.99998 13.3333C7.97831 13.3333 6.33331 14.9783 6.33331 16.9999C6.33331 19.0216 7.97831 20.6666 9.99998 20.6666H22C24.0216 20.6666 25.6666 19.0216 25.6666 16.9999C25.6666 14.9783 24.0216 13.3333 22 13.3333ZM22 19.3333H9.99998C8.71331 19.3333 7.66665 18.2863 7.66665 16.9999C7.66665 15.7136 8.71331 14.6666 9.99998 14.6666C10.0923 14.6666 10.241 14.6893 10.398 14.7206V15.3333C10.398 15.7013 10.6966 15.9999 11.0646 15.9999C11.4326 15.9999 11.7313 15.7013 11.7313 15.3333V14.2579C12.09 12.1746 13.8773 10.6666 16 10.6666C18.1236 10.6666 19.9116 12.1763 20.2693 14.2613V15.3333C20.2693 15.7013 20.568 15.9999 20.936 15.9999C21.3043 15.9999 21.6026 15.7013 21.6026 15.3333V14.7209C21.7593 14.6896 21.9086 14.6666 22 14.6666C23.2863 14.6666 24.3333 15.7136 24.3333 16.9999C24.3333 18.2863 23.2863 19.3333 22 19.3333Z" fill="#363B9D"/>
</svg>
