<svg width="24" height="24" viewBox="0 0 24 24" fill="none" xmlns="http://www.w3.org/2000/svg">
<path d="M16.5 10C16.373 10 16.222 10.0197 16.0777 10.046C15.5545 8.253 13.9158 7 12 7C10.084 7 8.44525 8.253 7.922 10.046C7.778 10.0197 7.62675 10 7.5 10C5.98375 10 4.75 11.2337 4.75 12.75C4.75 14.2663 5.98375 15.5 7.5 15.5H10.3158L9.334 16.9727C9.23175 17.126 9.22225 17.3232 9.309 17.486C9.39625 17.6485 9.56575 17.75 9.75 17.75H10.3158L9.334 19.2227C9.181 19.4525 9.243 19.763 9.47275 19.916C9.55775 19.973 9.65425 20 9.7495 20C9.911 20 10.0695 19.9218 10.166 19.7773L11.666 17.5273C11.7683 17.374 11.7778 17.1768 11.691 17.014C11.6037 16.8515 11.4342 16.75 11.25 16.75H10.6842L11.5175 15.5H12.8155L12.3337 16.2227C12.2315 16.376 12.222 16.5732 12.3088 16.736C12.3963 16.8985 12.5658 17 12.75 17H13.3158L12.834 17.7227C12.681 17.9525 12.743 18.263 12.9727 18.416C13.0577 18.473 13.1543 18.5 13.2495 18.5C13.411 18.5 13.5695 18.4218 13.666 18.2773L14.666 16.7773C14.7683 16.624 14.7778 16.4268 14.691 16.264C14.6038 16.1015 14.4342 16 14.25 16H13.6842L14.0175 15.5H16.5C18.0162 15.5 19.25 14.2663 19.25 12.75C19.25 11.2337 18.0162 10 16.5 10ZM16.5 14.5H7.5C6.53525 14.5 5.75 13.7147 5.75 12.75C5.75 11.7853 6.53525 11 7.5 11C7.56925 11 7.68075 11.017 7.79825 11.0405V11.5C7.79825 11.776 8.022 12 8.29825 12C8.5745 12 8.79825 11.776 8.79825 11.5V10.6952C9.0665 9.132 10.4072 8 12 8C13.5925 8 14.9332 9.132 15.2017 10.6955V11.5C15.2017 11.776 15.4257 12 15.7017 12C15.9777 12 16.2017 11.776 16.2017 11.5V11.0407C16.3193 11.0172 16.4315 11 16.5 11C17.4648 11 18.25 11.7853 18.25 12.75C18.25 13.7147 17.4648 14.5 16.5 14.5Z" fill="#5D5FEF"/>
</svg>
