<svg width="24" height="24" viewBox="0 0 24 24" fill="none" xmlns="http://www.w3.org/2000/svg">
<path d="M18.139 10.5468C18.3753 10.0677 18.5 9.5415 18.5 9C18.5 7.07 16.93 5.5 15 5.5C13.8498 5.5 12.7763 6.07025 12.126 7.00525C12.084 7.004 12.0425 7 12.0003 7C10.0843 7 8.44552 8.253 7.92252 10.046C7.77828 10.0197 7.62702 10 7.50027 10C5.98377 10 4.75027 11.2338 4.75027 12.75C4.75027 14.2662 5.98377 15.5 7.50027 15.5H16.5003C18.0165 15.5 19.2503 14.2662 19.2503 12.75C19.2503 11.848 18.8118 11.0485 18.139 10.5468ZM15 6.5C16.3785 6.5 17.5 7.6215 17.5 9C17.5 9.387 17.41 9.7625 17.241 10.1042C17.0048 10.038 16.757 10 16.5003 10C16.3733 10 16.2223 10.0197 16.0778 10.046C15.6758 8.66825 14.6143 7.61225 13.2753 7.19575C13.7348 6.7575 14.3493 6.5 15 6.5ZM16.5003 14.5H7.50027C6.53552 14.5 5.75027 13.7148 5.75027 12.75C5.75027 11.7852 6.53552 11 7.50027 11C7.56952 11 7.68102 11.017 7.79852 11.0405V11.5C7.79852 11.776 8.02252 12 8.29852 12C8.57452 12 8.79852 11.776 8.79852 11.5V10.6952C9.06677 9.132 10.4075 8 12.0003 8C13.5933 8 14.9343 9.1325 15.202 10.6965V11.5C15.202 11.776 15.426 12 15.702 12C15.978 12 16.202 11.776 16.202 11.5V11.0407C16.3198 11.0172 16.4318 11 16.5003 11C17.465 11 18.2503 11.7852 18.2503 12.75C18.2503 13.7148 17.465 14.5 16.5003 14.5Z" fill="#5D5FEF"/>
<path d="M15 4.5C15.276 4.5 15.5 4.276 15.5 4V3C15.5 2.724 15.276 2.5 15 2.5C14.7238 2.5 14.5 2.724 14.5 3V4C14.5 4.276 14.7238 4.5 15 4.5Z" fill="#5D5FEF"/>
<path d="M21 8.5H20C19.7238 8.5 19.5 8.724 19.5 9C19.5 9.276 19.7238 9.5 20 9.5H21C21.276 9.5 21.5 9.276 21.5 9C21.5 8.724 21.276 8.5 21 8.5Z" fill="#5D5FEF"/>
<path d="M18.5358 5.96421C18.6638 5.96421 18.7915 5.91546 18.8893 5.81771L19.5963 5.11071C19.7915 4.91546 19.7915 4.59896 19.5963 4.40371C19.401 4.20846 19.0845 4.20846 18.8893 4.40371L18.1823 5.11071C17.987 5.30596 17.987 5.62246 18.1823 5.81771C18.2798 5.91546 18.4078 5.96421 18.5358 5.96421Z" fill="#5D5FEF"/>
<path d="M11.1107 5.81771C11.2085 5.91546 11.3362 5.96421 11.4642 5.96421C11.5922 5.96421 11.72 5.91546 11.8177 5.81771C12.013 5.62246 12.013 5.30596 11.8177 5.11071L11.1107 4.40371C10.9155 4.20846 10.599 4.20846 10.4037 4.40371C10.2085 4.59896 10.2085 4.91546 10.4037 5.11071L11.1107 5.81771Z" fill="#5D5FEF"/>
</svg>
