<svg width="24" height="24" viewBox="0 0 24 24" fill="none" xmlns="http://www.w3.org/2000/svg">
<path d="M16.5 10C16.3733 10 16.222 10.0197 16.078 10.046C15.5545 8.253 13.9158 7 12 7C10.084 7 8.4455 8.253 7.922 10.046C7.778 10.0197 7.62675 10 7.5 10C5.98375 10 4.75 11.2337 4.75 12.75C4.75 14.2663 5.98375 15.5 7.5 15.5H16.5C18.0162 15.5 19.25 14.2663 19.25 12.75C19.25 11.2337 18.0162 10 16.5 10ZM16.5 14.5H7.5C6.535 14.5 5.75 13.7147 5.75 12.75C5.75 11.7853 6.535 11 7.5 11C7.56925 11 7.68075 11.017 7.7985 11.0405V11.5C7.7985 11.776 8.0225 12 8.2985 12C8.5745 12 8.7985 11.776 8.7985 11.5V10.6935C9.0675 9.131 10.408 8 12 8C13.5927 8 14.9338 9.13225 15.202 10.696V11.5C15.202 11.776 15.426 12 15.702 12C15.9782 12 16.202 11.776 16.202 11.5V11.0407C16.3195 11.0172 16.4315 11 16.5 11C17.4648 11 18.25 11.7853 18.25 12.75C18.25 13.7147 17.4648 14.5 16.5 14.5Z" fill="#5D5FEF"/>
</svg>
