<svg width="24" height="24" viewBox="0 0 24 24" fill="none" xmlns="http://www.w3.org/2000/svg">
<path d="M16.5 10C16.3733 10 16.222 10.0197 16.078 10.046C15.5545 8.253 13.9158 7 12 7C10.084 7 8.4455 8.253 7.922 10.046C7.778 10.0197 7.62675 10 7.5 10C5.98375 10 4.75 11.2337 4.75 12.75C4.75 14.2663 5.98375 15.5 7.5 15.5H16.5C18.0163 15.5 19.25 14.2663 19.25 12.75C19.25 11.2337 18.0163 10 16.5 10ZM16.5 14.5H7.5C6.535 14.5 5.75 13.7147 5.75 12.75C5.75 11.7853 6.535 11 7.5 11C7.56925 11 7.68075 11.017 7.7985 11.0405V11.5C7.7985 11.776 8.0225 12 8.2985 12C8.5745 12 8.7985 11.776 8.7985 11.5V10.6935C9.0675 9.131 10.408 8 12 8C13.5927 8 14.9338 9.13225 15.202 10.696V11.5C15.202 11.776 15.426 12 15.702 12C15.9782 12 16.202 11.776 16.202 11.5V11.0407C16.3195 11.0172 16.4315 11 16.5 11C17.4648 11 18.25 11.7853 18.25 12.75C18.25 13.7147 17.4648 14.5 16.5 14.5Z" fill="#5D5FEF"/>
<path d="M7.375 7.5C5.95452 7.5 4.73977 8.42132 4.35166 9.73971C4.2449 9.7204 4.13276 9.70588 4.03879 9.70588C2.91468 9.70588 2 10.6131 2 11.7279C2 12.8428 2.91468 13.75 4.03879 13.75H4.75C4.71026 13.625 4.63078 13.3029 4.63078 13.0147H4.03879C3.32336 13.0147 2.74138 12.4373 2.74138 11.7279C2.74138 11.0186 3.32336 10.4412 4.03879 10.4412C4.09013 10.4412 4.1728 10.4537 4.26009 10.471V10.8088C4.26009 11.0118 4.42616 11.1765 4.63078 11.1765C4.83541 11.1765 5.00147 11.0118 5.00147 10.8088V10.2158C5.20091 9.06691 6.19472 8.23529 7.375 8.23529C7.78017 8.23529 8.16337 8.33331 8.5 8.50853C8.6 8.28994 8.84335 8.02191 8.95253 7.91522C8.48727 7.64987 7.94784 7.5 7.375 7.5Z" fill="#5D5FEF"/>
<path d="M16.8275 7C18.248 7 19.4627 7.92132 19.8509 9.23971C19.9576 9.2204 20.0698 9.20588 20.1637 9.20588C21.2878 9.20588 22.2025 10.1131 22.2025 11.2279C22.2025 12.3428 21.2878 13.25 20.1637 13.25H19.4525C19.4923 13.125 19.5717 12.8029 19.5717 12.5147H20.1637C20.8792 12.5147 21.4611 11.9373 21.4611 11.2279C21.4611 10.5186 20.8792 9.94118 20.1637 9.94118C20.1124 9.94118 20.0297 9.95368 19.9424 9.97096V10.3088C19.9424 10.5118 19.7764 10.6765 19.5717 10.6765C19.3671 10.6765 19.201 10.5118 19.201 10.3088V9.71581C19.0016 8.56691 18.0078 7.73529 16.8275 7.73529C15.875 7.73529 15.5866 8.07478 15.25 8.25C15.15 8.03141 14.8592 7.84199 14.75 7.73529C15.2153 7.46995 15.75 7 16.8275 7Z" fill="#5D5FEF"/>
</svg>
