<svg width="24" height="24" viewBox="0 0 24 24" fill="none" xmlns="http://www.w3.org/2000/svg">
<path d="M8.8399 10.898C8.23243 10.898 7.7389 11.3919 7.7389 12C7.7389 12.6081 8.23243 13.102 8.8399 13.102C9.44828 13.102 9.9419 12.6082 9.9419 12C9.9419 11.3918 9.44828 10.898 8.8399 10.898Z" fill="#1C1C1E" fill-opacity="0.54"/>
<path fill-rule="evenodd" clip-rule="evenodd" d="M16.334 2C19.7378 2 22 4.4295 22 7.916V16.084C22 19.5707 19.7376 22 16.333 22H7.665C4.26137 22 2 19.5707 2 16.084V7.916C2 4.4326 4.26743 2 7.665 2H16.334ZM11.3322 11.2502C11.0102 10.179 10.0161 9.398 8.8399 9.398C7.40375 9.398 6.2389 10.5637 6.2389 12C6.2389 13.4363 7.40375 14.602 8.8399 14.602L9.00444 14.5969C10.1077 14.528 11.0247 13.7712 11.3319 12.7507L13.431 12.75L13.4312 13.8515L13.438 13.9533C13.4877 14.3193 13.8015 14.6015 14.1812 14.6015C14.5954 14.6015 14.9312 14.2657 14.9312 13.8515L14.931 12.749L16.2596 12.7498L16.2599 13.852L16.2667 13.9538C16.3164 14.3198 16.6302 14.602 17.0099 14.602C17.4241 14.602 17.7599 14.2662 17.7599 13.852V12L17.7531 11.8982C17.7034 11.5322 17.3896 11.25 17.0099 11.25H14.195L14.1812 11.2495L14.166 11.2497L11.3322 11.2502ZM8.8399 10.898C8.23243 10.898 7.7389 11.3919 7.7389 12C7.7389 12.6081 8.23243 13.102 8.8399 13.102C9.44828 13.102 9.9419 12.6082 9.9419 12C9.9419 11.3918 9.44828 10.898 8.8399 10.898Z" fill="#1C1C1E" fill-opacity="0.54"/>
</svg>
