<svg width="280" height="80" viewBox="0 0 280 80" fill="none" xmlns="http://www.w3.org/2000/svg">
<path opacity="0.24" d="M34 60H6C4.89543 60 4 60.8954 4 62V78C4 79.1046 4.89543 80 6 80H34C35.1046 80 36 79.1046 36 78V62C36 60.8954 35.1046 60 34 60Z" fill="#02DB5C"/>
<path opacity="0.24" d="M74 30H46C44.8954 30 44 30.8954 44 32V78C44 79.1046 44.8954 80 46 80H74C75.1046 80 76 79.1046 76 78V32C76 30.8954 75.1046 30 74 30Z" fill="#FEB156"/>
<path opacity="0.24" d="M114 10H86C84.8954 10 84 10.8954 84 12V78C84 79.1046 84.8954 80 86 80H114C115.105 80 116 79.1046 116 78V12C116 10.8954 115.105 10 114 10Z" fill="#FF6C3E"/>
<path opacity="0.24" d="M154 40H126C124.895 40 124 40.8954 124 42V78C124 79.1046 124.895 80 126 80H154C155.105 80 156 79.1046 156 78V42C156 40.8954 155.105 40 154 40Z" fill="#FFDE30"/>
<path opacity="0.24" d="M194 50H166C164.895 50 164 50.8954 164 52V78C164 79.1046 164.895 80 166 80H194C195.105 80 196 79.1046 196 78V52C196 50.8954 195.105 50 194 50Z" fill="#30B502"/>
<path opacity="0.24" d="M234 0H206C204.895 0 204 0.895429 204 2V78C204 79.1046 204.895 80 206 80H234C235.105 80 236 79.1046 236 78V2C236 0.895431 235.105 0 234 0Z" fill="#FF0000"/>
<path opacity="0.24" d="M274 60H246C244.895 60 244 60.8954 244 62V78C244 79.1046 244.895 80 246 80H274C275.105 80 276 79.1046 276 78V62C276 60.8954 275.105 60 274 60Z" fill="#02DB5C"/>
</svg>
