<svg width="26" height="20" viewBox="0 0 26 20" fill="none" xmlns="http://www.w3.org/2000/svg">
<path d="M3.29313 20H22.4646C24.646 20 25.7577 18.9093 25.7577 16.7488V5.76822C25.7577 3.60776 24.646 2.52753 22.4646 2.52753H19.4651C18.6366 2.52753 18.3849 2.35973 17.913 1.83534L17.0739 0.891453C16.5496 0.31463 16.0147 0 14.9345 0H10.7499C9.66964 0 9.13477 0.31463 8.61038 0.891453L7.77137 1.83534C7.29942 2.34924 7.03723 2.52753 6.21919 2.52753H3.29313C1.10121 2.52753 0 3.60776 0 5.76822V16.7488C0 18.9093 1.10121 20 3.29313 20ZM12.8789 16.9061C9.7011 16.9061 7.1526 14.3681 7.1526 11.1694C7.1526 7.98112 9.7011 5.4431 12.8789 5.4431C16.0566 5.4431 18.5947 7.98112 18.5947 11.1694C18.5947 14.3681 16.0461 16.9061 12.8789 16.9061ZM19.2973 7.30991C19.2973 6.59675 19.9266 5.96749 20.6607 5.96749C21.3844 5.96749 22.0031 6.59675 22.0031 7.30991C22.0031 8.05454 21.3844 8.65233 20.6607 8.66282C19.9266 8.66282 19.2973 8.06502 19.2973 7.30991ZM12.8789 15.312C15.1652 15.312 17.011 13.4767 17.011 11.1694C17.011 8.87257 15.1652 7.02674 12.8789 7.02674C10.5926 7.02674 8.73623 8.87257 8.73623 11.1694C8.73623 13.4767 10.603 15.312 12.8789 15.312Z" fill="white"/>
</svg>
