<svg width="17" height="17" viewBox="0 0 17 17" fill="none" xmlns="http://www.w3.org/2000/svg">
<path fill-rule="evenodd" clip-rule="evenodd" d="M12.3465 0C13.6334 0.0144932 14.8582 0.559246 15.7357 1.50743C16.6132 2.45561 17.0668 3.72445 16.992 4.98013L16.9909 11.9816C17.0668 13.2756 16.6132 14.5444 15.7357 15.4926C14.8582 16.4408 13.6334 16.9855 12.3393 17H4.63776C1.94365 17 0 14.8227 0 12.0199V4.98013C0 2.17729 1.94365 0 4.63776 0H12.3465ZM4.25 8.50001C4.25 8.03056 4.63056 7.65001 5.1 7.65001H7.65001V5.1C7.65001 4.63056 8.03056 4.25 8.50001 4.25C8.96945 4.25 9.35001 4.63056 9.35001 5.1V7.65001H11.9C12.3695 7.65001 12.75 8.03056 12.75 8.50001C12.75 8.96945 12.3695 9.35001 11.9 9.35001H9.35001V11.9C9.35001 12.3695 8.96945 12.75 8.50001 12.75C8.03056 12.75 7.65001 12.3695 7.65001 11.9V9.35001H5.1C4.63056 9.35001 4.25 8.96945 4.25 8.50001Z" fill="#00C853"/>
</svg>
