<svg width="32" height="32" viewBox="0 0 32 32" fill="none" xmlns="http://www.w3.org/2000/svg">
<path d="M22 13.3334C21.831 13.3334 21.6293 13.3597 21.437 13.3947C20.7393 11.004 18.5543 9.33337 16 9.33337C13.4453 9.33337 11.2603 11.004 10.5627 13.3947C10.3707 13.3597 10.1693 13.3334 10 13.3334C7.97834 13.3334 6.33334 14.9784 6.33334 17C6.33334 19.0217 7.97834 20.6667 10 20.6667H22C24.0217 20.6667 25.6667 19.0217 25.6667 17C25.6667 14.9784 24.0217 13.3334 22 13.3334ZM22 19.3334H10C8.71368 19.3334 7.66668 18.2864 7.66668 17C7.66668 15.7137 8.71368 14.6667 10 14.6667C10.0923 14.6667 10.241 14.6894 10.398 14.7207V15.3334C10.398 15.7014 10.6967 16 11.0647 16C11.4327 16 11.7313 15.7014 11.7313 15.3334V14.258C12.0897 12.1747 13.8773 10.6667 16 10.6667C18.1237 10.6667 19.9117 12.1764 20.2693 14.2614V15.3334C20.2693 15.7014 20.568 16 20.936 16C21.304 16 21.6027 15.7014 21.6027 15.3334V14.721C21.7593 14.6897 21.9087 14.6667 22 14.6667C23.2863 14.6667 24.3333 15.7137 24.3333 17C24.3333 18.2864 23.2863 19.3334 22 19.3334Z" fill="#5D5FEF"/>
<path d="M13 22.6667C13.3682 22.6667 13.6667 22.3682 13.6667 22C13.6667 21.6319 13.3682 21.3334 13 21.3334C12.6318 21.3334 12.3333 21.6319 12.3333 22C12.3333 22.3682 12.6318 22.6667 13 22.6667Z" fill="#5D5FEF"/>
<path d="M19 22.6667C19.3682 22.6667 19.6667 22.3682 19.6667 22C19.6667 21.6319 19.3682 21.3334 19 21.3334C18.6318 21.3334 18.3333 21.6319 18.3333 22C18.3333 22.3682 18.6318 22.6667 19 22.6667Z" fill="#5D5FEF"/>
<path d="M16 24.6667C16.3682 24.6667 16.6667 24.3682 16.6667 24C16.6667 23.6319 16.3682 23.3334 16 23.3334C15.6318 23.3334 15.3333 23.6319 15.3333 24C15.3333 24.3682 15.6318 24.6667 16 24.6667Z" fill="#5D5FEF"/>
<path d="M19 26.6667C19.3682 26.6667 19.6667 26.3682 19.6667 26C19.6667 25.6318 19.3682 25.3334 19 25.3334C18.6318 25.3334 18.3333 25.6318 18.3333 26C18.3333 26.3682 18.6318 26.6667 19 26.6667Z" fill="#5D5FEF"/>
<path d="M16 28.6667C16.3682 28.6667 16.6667 28.3682 16.6667 28C16.6667 27.6318 16.3682 27.3334 16 27.3334C15.6318 27.3334 15.3333 27.6318 15.3333 28C15.3333 28.3682 15.6318 28.6667 16 28.6667Z" fill="#5D5FEF"/>
<path d="M13 26.6667C13.3682 26.6667 13.6667 26.3682 13.6667 26C13.6667 25.6318 13.3682 25.3334 13 25.3334C12.6318 25.3334 12.3333 25.6318 12.3333 26C12.3333 26.3682 12.6318 26.6667 13 26.6667Z" fill="#5D5FEF"/>
</svg>
