<svg width="24" height="35" viewBox="0 0 24 35" fill="none" xmlns="http://www.w3.org/2000/svg">
<path d="M3.44439 35H20.5228C22.837 35 23.9672 33.8519 23.9672 31.3403V18.1727C23.9672 15.9124 23.0343 14.7463 21.1148 14.5489V10.0282C21.1148 3.26499 16.6838 0 11.9836 0C7.28344 0 2.85238 3.26499 2.85238 10.0282V14.6386C1.09431 14.9077 0 16.0559 0 18.1727V31.3403C0 33.8519 1.13019 35 3.44439 35ZM5.74065 9.65146C5.74065 5.14864 8.62891 2.76269 11.9836 2.76269C15.3383 2.76269 18.2266 5.14864 18.2266 9.65146V14.531L5.74065 14.5489V9.65146Z" fill="white"/>
</svg>
