<svg width="24" height="24" viewBox="0 0 24 24" fill="none" xmlns="http://www.w3.org/2000/svg">
<path opacity="0.32" d="M8.28553 17.3834C7.88396 15.1779 6.88003 13.3734 5.87609 13.1729L1.86035 13.9749C2.96468 13.8746 3.96861 15.9799 4.47058 18.1854C4.87216 19.7895 4.87216 22.5965 3.76783 22.8973L7.88396 21.995C8.7875 21.0928 8.68711 19.3885 8.28553 17.3834Z" fill="#CE0395"/>
<path d="M4.47049 18.1854C3.96853 15.9798 2.96459 13.8745 1.86026 14.075C0.755936 14.2755 0.956723 17.3833 1.15751 18.6866C1.3583 20.0901 2.46263 23.0977 3.66735 22.9974C4.87207 22.8972 4.87207 19.8896 4.47049 18.1854Z" fill="#CE0395"/>
<path opacity="0.32" d="M15.7146 17.3834C16.1162 15.1779 17.1201 13.3734 18.124 13.1729L22.1398 13.9749C21.0355 13.8746 20.0315 15.9799 19.5296 18.1854C19.128 19.7895 19.128 22.5965 20.2323 22.8973L16.1162 21.995C15.2126 21.0928 15.313 19.3885 15.7146 17.3834Z" fill="#CE0395"/>
<path d="M19.5295 18.1856C20.0314 15.98 21.0354 13.7745 22.1397 14.0752C23.244 14.2757 23.0432 17.3836 22.8425 18.6868C22.6417 20.0904 21.5373 23.0979 20.3326 22.9977C19.1279 22.8974 19.1279 19.8899 19.5295 18.1856Z" fill="#CE0395"/>
<path d="M15.7147 17.3834C16.0159 15.8797 16.5178 14.4761 17.2206 13.7744C15.7147 12.2706 13.506 10.4661 12.0001 10.4661C10.4942 10.4661 8.28557 12.2706 6.77966 13.7744C7.48242 14.4761 7.98438 15.8797 8.28557 17.3834C8.58675 18.787 8.68714 20.0902 8.38596 20.9925L8.48635 21.0928C10.0926 22.6968 10.7954 22.797 12.0001 22.797C13.2048 22.797 13.9076 22.6968 15.6143 21.0928C15.3131 20.0902 15.4135 18.8872 15.7147 17.3834Z" fill="#CE0395"/>
<path opacity="0.72" d="M22.842 5.85448C22.7416 4.04994 21.3361 2.64642 19.3283 1.94465C16.5172 0.942133 13.0035 0.942133 11.9995 1.04238C11.096 1.04238 7.48183 0.942133 4.67081 1.94465C2.66294 2.64642 1.25744 4.15019 1.15704 5.85448C0.956255 8.86203 1.8598 11.2681 3.3657 13.7744L5.07239 13.4736L5.87554 13.2731C6.17672 13.2731 6.4779 13.4736 6.77908 13.8746C8.28498 12.3708 10.4936 10.5663 11.9995 10.5663C13.5054 10.5663 15.7141 12.3708 17.22 13.8746C17.5212 13.5739 17.8224 13.3734 18.1235 13.2731L18.9267 13.4736L20.6334 13.7744C22.1393 11.2681 23.0428 8.86203 22.842 5.85448ZM10.594 9.36329C10.3932 9.7643 9.89127 9.9648 9.4897 9.9648C9.18852 9.9648 8.98773 9.86455 8.68655 9.66405L7.38144 8.76178C6.77908 8.36077 6.57829 7.45851 6.97986 6.857C7.38144 6.25548 8.28498 6.05498 8.88734 6.45599L10.2928 7.35825C10.8952 7.85951 11.096 8.66153 10.594 9.36329ZM16.6176 8.76178L15.2121 9.66405C15.0113 9.86455 14.8106 9.9648 14.5094 9.9648C14.1078 9.9648 13.6058 9.7643 13.405 9.36329C13.0035 8.76178 13.1039 7.85951 13.8066 7.45851L15.2121 6.55624C15.8145 6.15523 16.718 6.25548 17.1196 6.95725C17.5212 7.65901 17.22 8.36077 16.6176 8.76178Z" fill="#CE0395"/>
<path opacity="0.88" d="M5.97551 3.53712C8.28456 2.73874 11.196 2.73874 11.9991 2.73874C12.8023 2.73874 15.7137 2.63895 18.0227 3.53712C19.629 4.1359 20.8337 5.33347 20.9341 6.73063C21.1349 9.32536 20.3318 11.3213 19.0267 13.417L20.7334 13.7164C22.2393 11.2215 23.1428 8.82637 22.942 5.83246C22.8416 4.03611 21.4361 2.63895 19.4282 1.94037C16.6172 0.942396 13.1034 0.942396 12.0995 1.04219C11.196 1.04219 7.58181 0.942396 4.77079 1.94037C2.76292 2.63895 1.35741 4.1359 1.25702 5.83246C1.05623 8.82637 1.95977 11.2215 3.46567 13.7164L5.17236 13.417C3.86725 11.2215 3.0641 9.32536 3.26489 6.73063C3.26489 5.23367 4.36922 4.1359 5.97551 3.53712Z" fill="#CE0395"/>
</svg>
