<svg width="16" height="16" viewBox="0 0 16 16" fill="none" xmlns="http://www.w3.org/2000/svg">
<path d="M12.4962 10.2115L11.4608 9.61363L12.05 9.45579C12.2278 9.40813 12.3333 9.22529 12.2857 9.04763C12.2382 8.86996 12.055 8.76346 11.8775 8.81196L10.6445 9.14229L9.72902 8.61379L10.8178 8.32196C10.9553 8.28513 11.0543 8.16513 11.0642 8.02296C11.074 7.88096 10.9925 7.74846 10.8613 7.69313L9.90085 7.28713L10.6447 6.85763L11.8773 7.18779C11.9063 7.19563 11.9353 7.19929 11.9638 7.19929C12.1112 7.19929 12.2457 7.10096 12.2857 6.95213C12.3333 6.77429 12.2277 6.59146 12.05 6.54396L11.4613 6.38629L12.4965 5.78863C12.656 5.69646 12.7105 5.49279 12.6187 5.33329C12.5263 5.17379 12.3225 5.11913 12.1632 5.21129L11.1282 5.80879L11.2857 5.22046C11.3333 5.04263 11.2277 4.85979 11.05 4.81229C10.871 4.76396 10.6895 4.87029 10.6418 5.04796L10.3118 6.28029L9.56802 6.70979L9.69652 5.67529C9.71318 5.54229 9.64852 5.41246 9.53252 5.34546C9.41668 5.27879 9.27152 5.28763 9.16485 5.36829L8.33352 5.99679V5.13813L9.23552 4.23613C9.36568 4.10596 9.36568 3.89496 9.23552 3.76479C9.10535 3.63463 8.89435 3.63463 8.76418 3.76479L8.33352 4.19546V2.99996C8.33352 2.81596 8.18418 2.66663 8.00018 2.66663C7.81602 2.66663 7.66685 2.81596 7.66685 2.99996V4.19563L7.23568 3.76429C7.10552 3.63413 6.89452 3.63413 6.76435 3.76429C6.63418 3.89429 6.63418 4.10546 6.76435 4.23563L7.66685 5.13829V5.99663L6.83502 5.36713C6.72135 5.28113 6.56585 5.27696 6.44785 5.35646C6.32968 5.43596 6.27502 5.58179 6.31202 5.71929L6.60402 6.80929L5.68852 6.28079L5.35802 5.04813C5.31052 4.87046 5.12752 4.76429 4.94985 4.81246C4.77202 4.86013 4.66652 5.04296 4.71418 5.22063L4.87185 5.80913L3.83668 5.21146C3.67685 5.11929 3.47335 5.17396 3.38135 5.33346C3.28935 5.49296 3.34385 5.69679 3.50335 5.78879L4.53835 6.38629L3.95002 6.54396C3.77218 6.59163 3.66668 6.77446 3.71435 6.95213C3.75418 7.10113 3.88885 7.19929 4.03618 7.19929C4.06468 7.19913 4.09385 7.19563 4.12268 7.18779L5.35502 6.85763L6.27035 7.38613L5.18218 7.67779C5.04468 7.71463 4.94568 7.83463 4.93602 7.97679C4.92618 8.11879 5.00768 8.25129 5.13885 8.30663L6.09885 8.71263L5.35485 9.14213L4.12302 8.81196C3.94552 8.76379 3.76235 8.86996 3.71485 9.04763C3.66718 9.22529 3.77268 9.40813 3.95052 9.45579L4.53835 9.61346L3.50368 10.2108C3.34418 10.303 3.28968 10.5066 3.38168 10.6661C3.44352 10.7731 3.55552 10.8328 3.67068 10.8328C3.72718 10.8328 3.78468 10.8185 3.83702 10.7881L4.87252 10.1903L4.71468 10.7795C4.66702 10.9571 4.77252 11.14 4.95035 11.1876C4.97918 11.1955 5.00835 11.1991 5.03668 11.1991C5.18385 11.1991 5.31852 11.1008 5.35852 10.952L5.68885 9.71896L6.43235 9.28979L6.30385 10.3245C6.28718 10.4573 6.35185 10.5871 6.46785 10.6543C6.58385 10.721 6.72885 10.7121 6.83552 10.6315L7.66668 10.003V10.8618L6.76418 11.7643C6.63402 11.8945 6.63402 12.1055 6.76418 12.2356C6.89435 12.3658 7.10535 12.3658 7.23552 12.2356L7.66668 11.8045V13C7.66668 13.184 7.81585 13.3333 8.00002 13.3333C8.18402 13.3333 8.33335 13.184 8.33335 13V11.8048L8.76418 12.2356C8.82935 12.3008 8.91452 12.3333 8.99985 12.3333C9.08518 12.3333 9.17035 12.3008 9.23552 12.2356C9.36568 12.1055 9.36568 11.8945 9.23552 11.7643L8.33335 10.8621V10.0035L9.16568 10.633C9.22485 10.6778 9.29568 10.7005 9.36668 10.7005C9.43168 10.7005 9.49652 10.6816 9.55285 10.6436C9.67102 10.564 9.72552 10.4181 9.68852 10.2806L9.39618 9.19146L10.3118 9.72013L10.6417 10.9521C10.6815 11.1011 10.8162 11.1993 10.9635 11.1993C10.992 11.1993 11.021 11.1956 11.05 11.1878C11.2277 11.1403 11.3333 10.9575 11.2857 10.7796L11.1283 10.1916L12.163 10.789C12.2157 10.8193 12.2728 10.8336 12.3293 10.8336C12.4445 10.8336 12.5565 10.774 12.6183 10.667C12.7103 10.5073 12.6558 10.3035 12.4962 10.2115ZM9.70785 7.92913L8.91252 8.14229L8.66602 7.99996L9.17718 7.70479L9.70785 7.92913ZM8.93752 6.37529L8.84402 7.12729L8.33318 7.42229V6.83246L8.93752 6.37529ZM7.20668 6.48479L7.66652 6.83263V7.42296L7.41985 7.28063L7.20668 6.48479ZM6.29118 8.07079L7.08602 7.85779L7.33235 7.99996L6.82152 8.29513L6.29118 8.07079ZM7.06168 9.62446L7.15502 8.87229L7.66668 8.57696V9.16713L7.06168 9.62446ZM8.79302 9.51529L8.33335 9.16779V8.57779L8.57952 8.72013L8.79302 9.51529Z" fill="#5D5FEF"/>
</svg>
