<svg width="24" height="24" viewBox="0 0 24 24" fill="none" xmlns="http://www.w3.org/2000/svg">
<path d="M13.5 11.5L5.99976 11.4997C5.72376 11.4997 5.49976 11.7237 5.49976 11.9997C5.49976 12.2757 5.72376 12.4997 5.99976 12.4997L13.5 12.5C14.4648 12.5 15.25 13.2852 15.25 14.25C15.25 15.2147 14.4648 16 13.5 16C13.2238 16 13 16.224 13 16.5C13 16.776 13.2238 17 13.5 17C15.0163 17 16.25 15.7662 16.25 14.25C16.25 12.7337 15.0163 11.5 13.5 11.5Z" fill="#5D5FEF"/>
<path d="M11.9998 13H6.00002C5.72402 13 5.50002 13.224 5.50002 13.5C5.50002 13.776 5.72402 14 6.00002 14H11.9998C12.1378 14 12.2498 14.112 12.2498 14.25C12.2498 14.388 12.1378 14.5 11.9998 14.5C11.7235 14.5 11.4998 14.724 11.4998 15C11.4998 15.276 11.7235 15.5 11.9998 15.5C12.689 15.5 13.2498 14.9392 13.2498 14.25C13.2498 13.5608 12.689 13 11.9998 13Z" fill="#5D5FEF"/>
<path d="M17.25 9.5C16.974 9.5 16.75 9.724 16.75 10C16.75 10.276 16.974 10.5 17.25 10.5C17.388 10.5 17.5 10.612 17.5 10.75C17.5 10.888 17.388 11 17.25 11H16.25C15.9738 11 15.75 11.224 15.75 11.5C15.75 11.776 15.9738 12 16.25 12H17.25C17.9393 12 18.5 11.4392 18.5 10.75C18.5 10.0608 17.9393 9.5 17.25 9.5Z" fill="#5D5FEF"/>
<path d="M5.99976 10.9998L14.25 11C15.3528 11 16.25 10.1027 16.25 9C16.25 7.89725 15.3528 7 14.25 7C13.1473 7 12.25 7.89725 12.25 9C12.25 9.276 12.4738 9.5 12.75 9.5C13.026 9.5 13.25 9.276 13.25 9C13.25 8.4485 13.6985 8 14.25 8C14.8015 8 15.25 8.4485 15.25 9C15.25 9.5515 14.8015 10 14.25 10L5.99976 9.99975C5.72376 9.99975 5.49976 10.2238 5.49976 10.4998C5.49976 10.7758 5.72376 10.9998 5.99976 10.9998Z" fill="#5D5FEF"/>
</svg>
