<svg width="24" height="24" viewBox="0 0 24 24" fill="none" xmlns="http://www.w3.org/2000/svg">
<path d="M12 19.5C11.7238 19.5 11.5 19.724 11.5 20V21C11.5 21.276 11.7238 21.5 12 21.5C12.276 21.5 12.5 21.276 12.5 21V20C12.5 19.724 12.276 19.5 12 19.5ZM9.75 18C9.47375 18 9.25 18.224 9.25 18.5V19.5C9.25 19.776 9.47375 20 9.75 20C10.026 20 10.25 19.776 10.25 19.5V18.5C10.25 18.224 10.026 18 9.75 18ZM14.25 18C13.9738 18 13.75 18.224 13.75 18.5V19.5C13.75 19.776 13.9738 20 14.25 20C14.526 20 14.75 19.776 14.75 19.5V18.5C14.75 18.224 14.526 18 14.25 18ZM16.5 10C16.373 10 16.222 10.0197 16.0777 10.046C15.5545 8.253 13.9158 7 12 7C10.084 7 8.44525 8.253 7.922 10.046C7.778 10.0197 7.62675 10 7.5 10C5.98375 10 4.75 11.2337 4.75 12.75C4.75 14.2663 5.98375 15.5 7.5 15.5H9.25V16.5C9.25 16.776 9.47375 17 9.75 17C10.026 17 10.25 16.776 10.25 16.5V15.5H13.75V16.5C13.75 16.776 13.9738 17 14.25 17C14.526 17 14.75 16.776 14.75 16.5V15.5H16.5C18.0162 15.5 19.25 14.2663 19.25 12.75C19.25 11.2337 18.0162 10 16.5 10ZM16.5 14.5H7.5C6.53525 14.5 5.75 13.7147 5.75 12.75C5.75 11.7853 6.53525 11 7.5 11C7.56925 11 7.68075 11.017 7.79825 11.0405V11.5C7.79825 11.776 8.022 12 8.29825 12C8.5745 12 8.79825 11.776 8.79825 11.5V10.6952C9.0665 9.132 10.4072 8 12 8C13.5925 8 14.9332 9.132 15.2017 10.6955V11.5C15.2017 11.776 15.4257 12 15.7017 12C15.9777 12 16.2017 11.776 16.2017 11.5V11.0407C16.3193 11.0172 16.4315 11 16.5 11C17.4648 11 18.25 11.7853 18.25 12.75C18.25 13.7147 17.4648 14.5 16.5 14.5ZM12 16.5C11.7238 16.5 11.5 16.724 11.5 17V18C11.5 18.276 11.7238 18.5 12 18.5C12.276 18.5 12.5 18.276 12.5 18V17C12.5 16.724 12.276 16.5 12 16.5Z" fill="#5D5FEF"/>
</svg>
