<svg width="176" height="92" viewBox="0 0 176 92" fill="none" xmlns="http://www.w3.org/2000/svg">
<path opacity="0.16" d="M172 88C172 76.7361 169.783 65.99 165.761 56.1743C161.599 46.0149 155.504 36.8521 147.933 29.1436C140.294 21.3658 131.153 15.0685 120.979 10.7213C110.854 6.39481 99.7068 4 88 4C76.9608 4 66.419 6.12945 56.763 10C46.3398 14.178 36.9486 20.3848 29.078 28.1318C21.2098 35.8764 14.8612 45.1603 10.5202 55.4954C6.32069 65.4937 4 76.4758 4 88" stroke="#02DB5C" stroke-width="8" stroke-linecap="round" stroke-linejoin="round"/>
<path d="M4 88C4 76.4758 6.32069 65.4937 10.5202 55.4954C14.8612 45.1603 21.2098 35.8764 29.078 28.1318" stroke="#02DB5C" stroke-width="8" stroke-linecap="round" stroke-linejoin="round"/>
</svg>
