<svg width="16" height="16" viewBox="0 0 16 16" fill="none" xmlns="http://www.w3.org/2000/svg">
<path d="M5.99992 14.6667H9.99992C13.3333 14.6667 14.6666 13.3334 14.6666 10V6.00004C14.6666 2.66671 13.3333 1.33337 9.99992 1.33337H5.99992C2.66659 1.33337 1.33325 2.66671 1.33325 6.00004V10C1.33325 13.3334 2.66659 14.6667 5.99992 14.6667Z" stroke="#1C1C1E" stroke-opacity="0.54" stroke-width="1.5" stroke-linecap="round" stroke-linejoin="round"/>
<path d="M11.3334 1.62671V8.28004C11.3334 9.59338 10.3934 10.1067 9.24008 9.41338L8.36008 8.88671C8.16008 8.76671 7.84008 8.76671 7.64008 8.88671L6.76008 9.41338C5.60675 10.1 4.66675 9.59338 4.66675 8.28004V1.62671" stroke="#1C1C1E" stroke-opacity="0.54" stroke-width="1.5" stroke-linecap="round" stroke-linejoin="round"/>
<path d="M5.99992 14.6667H9.99992C13.3333 14.6667 14.6666 13.3334 14.6666 10V6.00004C14.6666 2.66671 13.3333 1.33337 9.99992 1.33337H5.99992C2.66659 1.33337 1.33325 2.66671 1.33325 6.00004V10C1.33325 13.3334 2.66659 14.6667 5.99992 14.6667Z" stroke="#1C1C1E" stroke-opacity="0.54" stroke-width="1.5" stroke-linecap="round" stroke-linejoin="round"/>
<path d="M11.3334 1.62671V8.28004C11.3334 9.59338 10.3934 10.1067 9.24008 9.41338L8.36008 8.88671C8.16008 8.76671 7.84008 8.76671 7.64008 8.88671L6.76008 9.41338C5.60675 10.1 4.66675 9.59338 4.66675 8.28004V1.62671" stroke="#1C1C1E" stroke-opacity="0.54" stroke-width="1.5" stroke-linecap="round" stroke-linejoin="round"/>
</svg>
