<svg width="11" height="23" viewBox="0 0 11 23" fill="none" xmlns="http://www.w3.org/2000/svg">
<path d="M0 2.40375H10.3957V1.91067C10.3957 0.616347 9.75882 0 8.52613 0H1.86958C0.636891 0 0 0.616347 0 1.91067V2.40375ZM3.96516 23H6.43055C7.66324 23 8.28986 22.3837 8.28986 21.0893V10.18C8.28986 9.10138 8.54667 8.32068 8.93703 7.72488L9.60473 6.73872C10.0773 6.00938 10.3957 5.32113 10.3957 4.44797V3.60563H0V4.44797C0 5.32113 0.318446 6.00938 0.790978 6.73872L1.44841 7.72488C1.84904 8.32068 2.09558 9.10138 2.09558 10.18V21.0893C2.09558 22.3837 2.73247 23 3.96516 23ZM5.19786 15.1005C4.35552 15.1005 3.81108 14.4841 3.81108 13.6213V10.8066C3.81108 9.93345 4.35552 9.34792 5.19786 9.36847C6.02992 9.37874 6.58464 9.96427 6.58464 10.8066V13.6213C6.58464 14.4841 6.02992 15.1005 5.19786 15.1005ZM5.19786 14.3711C5.64984 14.3711 6.0402 13.9911 6.0402 13.5288C6.0402 13.0665 5.64984 12.6762 5.19786 12.6762C4.7356 12.6762 4.34524 13.0665 4.34524 13.5288C4.34524 13.9911 4.7356 14.3711 5.19786 14.3711Z" fill="white"/>
</svg>
