<svg width="24" height="24" viewBox="0 0 24 24" fill="none" xmlns="http://www.w3.org/2000/svg">
<path d="M16.3514 8.264C16.5089 8.264 16.6665 8.204 16.7865 8.08369L17.6569 7.21323C17.8972 6.97292 17.8972 6.58338 17.6569 6.34308C17.4166 6.10277 17.0268 6.10277 16.7868 6.34308L15.9163 7.21354C15.676 7.45385 15.676 7.84338 15.9163 8.08369C16.0363 8.204 16.1938 8.264 16.3514 8.264ZM6.46154 12C6.46154 11.6603 6.18585 11.3846 5.84615 11.3846H4.61538C4.27569 11.3846 4 11.6603 4 12C4 12.3397 4.27569 12.6154 4.61538 12.6154H5.84615C6.18585 12.6154 6.46154 12.3397 6.46154 12ZM7.21354 15.9163L6.34308 16.7868C6.10277 17.0271 6.10277 17.4166 6.34308 17.6569C6.46308 17.7772 6.62062 17.8372 6.77815 17.8372C6.93569 17.8372 7.09323 17.7772 7.21323 17.6569L8.08369 16.7865C8.324 16.5462 8.324 16.1566 8.08369 15.9163C7.84369 15.676 7.45354 15.676 7.21354 15.9163ZM7.21354 8.08369C7.33354 8.204 7.49108 8.264 7.64862 8.264C7.80615 8.264 7.96369 8.204 8.08369 8.08369C8.324 7.84338 8.324 7.45385 8.08369 7.21354L7.21323 6.34308C6.97323 6.10277 6.58308 6.10277 6.34308 6.34308C6.10277 6.58338 6.10277 6.97292 6.34308 7.21323L7.21354 8.08369ZM12 6.46154C12.3397 6.46154 12.6154 6.18585 12.6154 5.84615V4.61538C12.6154 4.27569 12.3397 4 12 4C11.6603 4 11.3846 4.27569 11.3846 4.61538V5.84615C11.3846 6.18585 11.6603 6.46154 12 6.46154ZM19.3846 11.3846H18.1538C17.8142 11.3846 17.5385 11.6603 17.5385 12C17.5385 12.3397 17.8142 12.6154 18.1538 12.6154H19.3846C19.7243 12.6154 20 12.3397 20 12C20 11.6603 19.7243 11.3846 19.3846 11.3846ZM16.7865 15.9163C16.5465 15.676 16.1563 15.676 15.9163 15.9163C15.676 16.1566 15.676 16.5462 15.9163 16.7865L16.7868 17.6569C16.9068 17.7772 17.0643 17.8372 17.2218 17.8372C17.3794 17.8372 17.5366 17.7772 17.6569 17.6569C17.8972 17.4166 17.8972 17.0271 17.6569 16.7868L16.7865 15.9163ZM12 17.5385C11.6603 17.5385 11.3846 17.8142 11.3846 18.1538V19.3846C11.3846 19.7243 11.6603 20 12 20C12.3397 20 12.6154 19.7243 12.6154 19.3846V18.1538C12.6154 17.8142 12.3397 17.5385 12 17.5385ZM12 7.69231C9.62462 7.69231 7.69231 9.62462 7.69231 12C7.69231 14.3754 9.62462 16.3077 12 16.3077C14.3754 16.3077 16.3077 14.3754 16.3077 12C16.3077 9.62462 14.3754 7.69231 12 7.69231ZM12 15.0769C10.3034 15.0769 8.92308 13.6966 8.92308 12C8.92308 10.3034 10.3034 8.92308 12 8.92308C13.6966 8.92308 15.0769 10.3034 15.0769 12C15.0769 13.6966 13.6966 15.0769 12 15.0769Z" fill="#5D5FEF"/>
</svg>
