<svg width="25" height="24" viewBox="0 0 25 24" fill="none" xmlns="http://www.w3.org/2000/svg">
<path opacity="0.4" d="M10.6687 19.8672C10.7676 20.0722 10.8649 20.2821 10.9638 20.5C11.0115 20.599 11.0577 20.7109 11.1059 20.8279C11.3255 21.3612 11.5887 22 12.25 22C12.9183 22 13.18 21.3478 13.3952 20.8113C13.4398 20.7003 13.4823 20.5943 13.5261 20.5C13.6275 20.2825 13.7259 20.073 13.825 19.8683C13.3133 19.9549 12.787 20 12.25 20C11.7108 20 11.1824 19.9545 10.6687 19.8672Z" fill="#FF6C3E"/>
<ellipse opacity="0.48" cx="12.25" cy="11" rx="9.1875" ry="9" fill="#FF6C3E"/>
<ellipse cx="12.25" cy="11" rx="8.16667" ry="8" fill="#FF6C3E"/>
</svg>
