<svg width="32" height="32" viewBox="0 0 32 32" fill="none" xmlns="http://www.w3.org/2000/svg">
<path d="M16 25.9999C15.6316 25.9999 15.3333 26.2986 15.3333 26.6666V27.9999C15.3333 28.3679 15.6316 28.6666 16 28.6666C16.368 28.6666 16.6666 28.3679 16.6666 27.9999V26.6666C16.6666 26.2986 16.368 25.9999 16 25.9999ZM13 23.9999C12.6316 23.9999 12.3333 24.2986 12.3333 24.6666V25.9999C12.3333 26.3679 12.6316 26.6666 13 26.6666C13.368 26.6666 13.6666 26.3679 13.6666 25.9999V24.6666C13.6666 24.2986 13.368 23.9999 13 23.9999ZM19 23.9999C18.6316 23.9999 18.3333 24.2986 18.3333 24.6666V25.9999C18.3333 26.3679 18.6316 26.6666 19 26.6666C19.368 26.6666 19.6666 26.3679 19.6666 25.9999V24.6666C19.6666 24.2986 19.368 23.9999 19 23.9999ZM22 13.3333C21.8306 13.3333 21.6293 13.3596 21.437 13.3946C20.7393 11.0039 18.5543 9.33325 16 9.33325C13.4453 9.33325 11.2603 11.0039 10.5626 13.3946C10.3706 13.3596 10.169 13.3333 9.99998 13.3333C7.97831 13.3333 6.33331 14.9783 6.33331 16.9999C6.33331 19.0216 7.97831 20.6666 9.99998 20.6666H12.3333V21.9999C12.3333 22.3679 12.6316 22.6666 13 22.6666C13.368 22.6666 13.6666 22.3679 13.6666 21.9999V20.6666H18.3333V21.9999C18.3333 22.3679 18.6316 22.6666 19 22.6666C19.368 22.6666 19.6666 22.3679 19.6666 21.9999V20.6666H22C24.0216 20.6666 25.6666 19.0216 25.6666 16.9999C25.6666 14.9783 24.0216 13.3333 22 13.3333ZM22 19.3333H9.99998C8.71365 19.3333 7.66665 18.2863 7.66665 16.9999C7.66665 15.7136 8.71365 14.6666 9.99998 14.6666C10.0923 14.6666 10.241 14.6893 10.3976 14.7206V15.3333C10.3976 15.7013 10.696 15.9999 11.0643 15.9999C11.4326 15.9999 11.731 15.7013 11.731 15.3333V14.2603C12.0886 12.1759 13.8763 10.6666 16 10.6666C18.1233 10.6666 19.911 12.1759 20.269 14.2606V15.3333C20.269 15.7013 20.5676 15.9999 20.9356 15.9999C21.3036 15.9999 21.6023 15.7013 21.6023 15.3333V14.7209C21.759 14.6896 21.9086 14.6666 22 14.6666C23.2863 14.6666 24.3333 15.7136 24.3333 16.9999C24.3333 18.2863 23.2863 19.3333 22 19.3333ZM16 21.9999C15.6316 21.9999 15.3333 22.2986 15.3333 22.6666V23.9999C15.3333 24.3679 15.6316 24.6666 16 24.6666C16.368 24.6666 16.6666 24.3679 16.6666 23.9999V22.6666C16.6666 22.2986 16.368 21.9999 16 21.9999Z" fill="#363B9D"/>
</svg>
