<svg width="24" height="24" viewBox="0 0 24 24" fill="none" xmlns="http://www.w3.org/2000/svg">
<g clip-path="url(#clip0_0_2191)">
<path d="M19.4622 11.297L19.505 11.75H19.96H22C22.1339 11.75 22.25 11.8661 22.25 12C22.25 12.1339 22.1339 12.25 22 12.25H19.96H19.5038L19.4621 12.7043C19.1342 16.2732 16.2751 19.1247 12.703 19.4622L12.25 19.505V19.96V22C12.25 22.1339 12.1339 22.25 12 22.25C11.8661 22.25 11.75 22.1339 11.75 22V19.96V19.5038L11.2957 19.4621C7.72679 19.1342 4.8753 16.2751 4.53778 12.703L4.49498 12.25H4.04H2C1.86614 12.25 1.75 12.1339 1.75 12C1.75 11.8661 1.86614 11.75 2 11.75H4.04H4.49617L4.5379 11.2957C4.86576 7.72679 7.72494 4.8753 11.297 4.53778L11.75 4.49498V4.04V2C11.75 1.86614 11.8661 1.75 12 1.75C12.1339 1.75 12.25 1.86614 12.25 2V4.04V4.49617L12.7043 4.5379C16.2732 4.86576 19.1247 7.72494 19.4622 11.297ZM8.38 12C8.38 13.9961 10.0039 15.62 12 15.62C13.9961 15.62 15.62 13.9961 15.62 12C15.62 10.0039 13.9961 8.38 12 8.38C10.0039 8.38 8.38 10.0039 8.38 12Z" fill="#1882FF" stroke="#1882FF"/>
</g>
<defs>
<clipPath id="clip0_0_2191">
<rect width="24" height="24" fill="white"/>
</clipPath>
</defs>
</svg>
