<svg width="16" height="16" viewBox="0 0 16 16" fill="none" xmlns="http://www.w3.org/2000/svg">
<path d="M8.00002 0.666626C3.93335 0.666626 0.666687 3.93329 0.666687 7.99996C0.666687 12.0666 3.93335 15.3333 8.00002 15.3333C12.0667 15.3333 15.3334 12.0666 15.3334 7.99996C15.3334 3.93329 12.0667 0.666626 8.00002 0.666626ZM9.86669 5.33329C10.4 5.33329 10.8 5.73329 10.8 6.26663C10.8 6.79996 10.4 7.19996 9.86669 7.19996C9.33335 7.19996 8.93335 6.79996 8.93335 6.26663C8.93335 5.73329 9.40002 5.33329 9.86669 5.33329ZM6.13335 5.33329C6.66669 5.33329 7.00002 5.73329 7.00002 6.26663C7.00002 6.79996 6.60002 7.13329 6.06669 7.13329C5.53335 7.13329 5.20002 6.66663 5.20002 6.19996C5.26669 5.66663 5.66669 5.26663 6.13335 5.33329ZM11 9.26663C11 9.53329 10.8667 9.73329 10.7334 9.99996C10.1334 10.9333 9.06669 11.8666 8.00002 11.8666C6.86669 11.8666 5.86669 10.8666 5.26669 9.99996C5.13335 9.79996 5.00002 9.53329 5.00002 9.33329C5.00002 9.13329 5.06669 8.93329 5.26669 8.79996C5.26669 8.66663 5.33335 8.66663 5.33335 8.59996C5.40002 8.53329 5.53335 8.53329 5.60002 8.53329H10.3334C10.4667 8.53329 10.5334 8.53329 10.6 8.59996C10.6 8.59996 10.6667 8.59996 10.7334 8.66663L10.8 8.73329C10.9334 8.86663 11 9.06663 11 9.26663C11 9.19996 11 9.19996 11 9.26663Z" fill="#02FA83"/>
<path opacity="0.16" d="M7.06668 6.26658C7.06668 5.73325 6.66668 5.33325 6.13335 5.33325C5.60001 5.33325 5.20001 5.73325 5.20001 6.19992C5.20001 6.73325 5.60001 7.13325 6.06668 7.13325C6.53335 7.13325 7.00001 6.73325 7.06668 6.26658Z" fill="#02FA83"/>
<path opacity="0.16" d="M9.86668 7.13325C10.4 7.13325 10.8 6.73325 10.8 6.19992C10.8 5.66659 10.4 5.33325 9.86668 5.33325C9.33335 5.33325 8.93335 5.73325 8.93335 6.26658C8.93335 6.79992 9.40002 7.13325 9.86668 7.13325Z" fill="#02FA83"/>
<path opacity="0.08" d="M11 9.26664C11 9.19998 11 9.19998 11 9.26664C11 9.06664 10.9334 8.93331 10.8 8.79998L10.7333 8.73331C10.6667 8.66664 10.6667 8.66664 10.6 8.66664C10.5333 8.59998 10.4 8.59998 10.3333 8.59998H5.60002C5.53335 8.59998 5.46668 8.59998 5.33335 8.66664C5.33335 8.66664 5.26668 8.66664 5.20002 8.73331C5.00002 8.86664 4.93335 9.06664 4.93335 9.26664C4.93335 9.46664 5.06668 9.73331 5.20002 9.93331C5.80002 10.8666 6.86668 11.8 7.93335 11.8C9.00002 11.8 10.0667 10.8666 10.6667 9.93331C10.8667 9.73331 11 9.46664 11 9.26664Z" fill="#02FA83"/>
</svg>
