<svg width="32" height="32" viewBox="0 0 32 32" fill="none" xmlns="http://www.w3.org/2000/svg">
<path d="M24.1853 14.0623C24.5003 13.4236 24.6667 12.7219 24.6667 11.9999C24.6667 9.42659 22.5733 7.33325 20 7.33325C18.4663 7.33325 17.035 8.09359 16.168 9.34025C16.112 9.33858 16.0567 9.33325 16.0003 9.33325C13.4457 9.33325 11.2607 11.0039 10.5633 13.3946C10.371 13.3596 10.1693 13.3333 10.0003 13.3333C7.97835 13.3333 6.33368 14.9783 6.33368 16.9999C6.33368 19.0216 7.97835 20.6666 10.0003 20.6666H22.0003C24.022 20.6666 25.667 19.0216 25.667 16.9999C25.667 15.7973 25.0823 14.7313 24.1853 14.0623ZM20 8.66658C21.838 8.66658 23.3333 10.1619 23.3333 11.9999C23.3333 12.5159 23.2133 13.0166 22.988 13.4723C22.673 13.3839 22.3427 13.3333 22.0003 13.3333C21.831 13.3333 21.6297 13.3596 21.437 13.3946C20.901 11.5576 19.4857 10.1496 17.7003 9.59425C18.313 9.00992 19.1323 8.66658 20 8.66658ZM22.0003 19.3333H10.0003C8.71401 19.3333 7.66701 18.2863 7.66701 16.9999C7.66701 15.7136 8.71401 14.6666 10.0003 14.6666C10.0927 14.6666 10.2413 14.6893 10.398 14.7206V15.3333C10.398 15.7013 10.6967 15.9999 11.0647 15.9999C11.4327 15.9999 11.7313 15.7013 11.7313 15.3333V14.2603C12.089 12.1759 13.8767 10.6666 16.0003 10.6666C18.1243 10.6666 19.9123 12.1766 20.2693 14.2619V15.3333C20.2693 15.7013 20.568 15.9999 20.936 15.9999C21.304 15.9999 21.6027 15.7013 21.6027 15.3333V14.7209C21.7597 14.6896 21.909 14.6666 22.0003 14.6666C23.2867 14.6666 24.3337 15.7136 24.3337 16.9999C24.3337 18.2863 23.2867 19.3333 22.0003 19.3333Z" fill="#363B9D"/>
<path d="M20 5.99992C20.368 5.99992 20.6667 5.70125 20.6667 5.33325V3.99992C20.6667 3.63192 20.368 3.33325 20 3.33325C19.6317 3.33325 19.3333 3.63192 19.3333 3.99992V5.33325C19.3333 5.70125 19.6317 5.99992 20 5.99992Z" fill="#363B9D"/>
<path d="M28 11.3333H26.6667C26.2983 11.3333 26 11.6319 26 11.9999C26 12.3679 26.2983 12.6666 26.6667 12.6666H28C28.368 12.6666 28.6667 12.3679 28.6667 11.9999C28.6667 11.6319 28.368 11.3333 28 11.3333Z" fill="#363B9D"/>
<path d="M24.7143 7.9522C24.885 7.9522 25.0553 7.8872 25.1857 7.75687L26.1283 6.8142C26.3887 6.55387 26.3887 6.13187 26.1283 5.87154C25.868 5.6112 25.446 5.6112 25.1857 5.87154L24.243 6.8142C23.9827 7.07454 23.9827 7.49654 24.243 7.75687C24.373 7.8872 24.5437 7.9522 24.7143 7.9522Z" fill="#363B9D"/>
<path d="M14.8143 7.75687C14.9446 7.8872 15.1149 7.9522 15.2856 7.9522C15.4563 7.9522 15.6266 7.8872 15.7569 7.75687C16.0173 7.49654 16.0173 7.07454 15.7569 6.8142L14.8143 5.87154C14.5539 5.6112 14.1319 5.6112 13.8716 5.87154C13.6113 6.13187 13.6113 6.55387 13.8716 6.8142L14.8143 7.75687Z" fill="#363B9D"/>
</svg>
