<svg width="16" height="16" viewBox="0 0 16 16" fill="none" xmlns="http://www.w3.org/2000/svg">
<path d="M4.77636 10.4595L4.77634 10.4596L4.78253 10.463C5.54796 10.8913 6.45214 10.7613 7.27096 10.2685C7.27103 10.2685 7.2711 10.2684 7.27117 10.2684L7.99909 9.83166L8.72991 10.269L8.73031 10.2693C9.28066 10.598 9.78175 10.72 10.2133 10.72C10.6636 10.72 11.0163 10.5816 11.2386 10.4519L10.9867 10.0201L11.2376 10.4525C11.9756 10.0243 12.3333 9.19437 12.3333 8.28001V2.36001C12.3333 2.30048 12.3633 2.24777 12.4148 2.21458C12.4654 2.18203 12.5159 2.18062 12.5592 2.20193L12.5614 2.20301C13.5583 2.68771 14.1667 3.69235 14.1667 5.20668V10.7933C14.1667 12.6572 12.6572 14.1667 10.7933 14.1667H5.20668C3.34282 14.1667 1.83334 12.6572 1.83334 10.7933V5.20668C1.83334 3.6925 2.44158 2.68791 3.43833 2.20316C3.48786 2.17922 3.53924 2.18325 3.5868 2.21401C3.636 2.24583 3.66668 2.29786 3.66668 2.36001V8.28001C3.66668 9.19693 4.02622 10.0257 4.77636 10.4595Z" fill="#363B9D" stroke="#363B9D"/>
<path d="M10.2364 8.7194C10.2256 8.72126 10.1979 8.7237 10.146 8.71446C10.0541 8.69808 9.92172 8.64998 9.75724 8.55129L9.75676 8.55101L8.87808 8.02513C8.61165 7.8637 8.29164 7.79837 7.99999 7.79837C7.70834 7.79837 7.38833 7.8637 7.1219 8.02513L6.24322 8.55101L6.24274 8.55129C6.08054 8.64861 5.94869 8.69554 5.8563 8.71155C5.80418 8.72058 5.77437 8.71845 5.7609 8.71629C5.75302 8.70681 5.7385 8.68578 5.72226 8.64486C5.69196 8.56847 5.66666 8.44744 5.66666 8.28004V2.00004C5.66666 1.90952 5.7428 1.83337 5.83332 1.83337H10.1667C10.2572 1.83337 10.3333 1.90952 10.3333 2.00004V8.28004C10.3333 8.44744 10.308 8.56847 10.2777 8.64486C10.2594 8.69107 10.2432 8.71192 10.2364 8.7194Z" fill="#363B9D" stroke="#363B9D"/>
</svg>
