<svg width="22" height="22" viewBox="0 0 22 22" fill="none" xmlns="http://www.w3.org/2000/svg">
<path d="M11 0C4.9 0 0 4.9 0 11C0 17.1 4.9 22 11 22C17.1 22 22 17.1 22 11C22 4.9 17.1 0 11 0ZM13.8 7C14.6 7 15.2 7.6 15.2 8.4C15.2 9.2 14.6 9.8 13.8 9.8C13 9.8 12.4 9.2 12.4 8.4C12.4 7.6 13.1 7 13.8 7ZM8.2 7C9 7 9.5 7.6 9.5 8.4C9.5 9.2 8.9 9.7 8.1 9.7C7.3 9.7 6.8 9 6.8 8.3C6.9 7.5 7.5 6.9 8.2 7ZM15.5 12.9C15.5 13.3 15.3 13.6 15.1 14C14.2 15.4 12.6 16.8 11 16.8C9.3 16.8 7.8 15.3 6.9 14C6.7 13.7 6.5 13.3 6.5 13C6.5 12.7 6.6 12.4 6.9 12.2C6.9 12 7 12 7 11.9C7.1 11.8 7.3 11.8 7.4 11.8H14.5C14.7 11.8 14.8 11.8 14.9 11.9C14.9 11.9 15 11.9 15.1 12L15.2 12.1C15.4 12.3 15.5 12.6 15.5 12.9C15.5 12.8 15.5 12.8 15.5 12.9Z" fill="#30B502"/>
<path opacity="0.16" d="M9.60005 8.4C9.60005 7.6 9.00005 7 8.20005 7C7.40005 7 6.80005 7.6 6.80005 8.3C6.80005 9.1 7.40005 9.7 8.10005 9.7C8.80005 9.7 9.50005 9.1 9.60005 8.4Z" fill="#30B502"/>
<path opacity="0.16" d="M13.8 9.7C14.6 9.7 15.2 9.1 15.2 8.3C15.2 7.5 14.6 7 13.8 7C13 7 12.4 7.6 12.4 8.4C12.4 9.2 13.1 9.7 13.8 9.7Z" fill="#30B502"/>
<path opacity="0.08" d="M15.5 12.8999C15.5 12.7999 15.5 12.7999 15.5 12.8999C15.5 12.5999 15.4 12.3999 15.2 12.1999L15.1 12.0999C15 11.9999 15 11.9999 14.9 11.9999C14.8 11.8999 14.6 11.8999 14.5 11.8999H7.40002C7.30002 11.8999 7.20002 11.8999 7.00002 11.9999C7.00002 11.9999 6.90002 11.9999 6.80002 12.0999C6.50002 12.2999 6.40002 12.5999 6.40002 12.8999C6.40002 13.1999 6.60002 13.5999 6.80002 13.8999C7.70002 15.2999 9.30002 16.6999 10.9 16.6999C12.5 16.6999 14.1 15.2999 15 13.8999C15.3 13.5999 15.5 13.1999 15.5 12.8999Z" fill="#30B502"/>
</svg>
