<svg width="14" height="14" viewBox="0 0 14 14" fill="none" xmlns="http://www.w3.org/2000/svg">
<path d="M7.00001 0.583374C3.44168 0.583374 0.583344 3.44171 0.583344 7.00004C0.583344 10.5584 3.44168 13.4167 7.00001 13.4167C10.5583 13.4167 13.4167 10.5584 13.4167 7.00004C13.4167 3.44171 10.5583 0.583374 7.00001 0.583374ZM8.63334 4.66671C9.10001 4.66671 9.45001 5.01671 9.45001 5.48337C9.45001 5.95004 9.10001 6.30004 8.63334 6.30004C8.16668 6.30004 7.81668 5.95004 7.81668 5.48337C7.81668 5.01671 8.22501 4.66671 8.63334 4.66671ZM5.36668 4.66671C5.83334 4.66671 6.12501 5.01671 6.12501 5.48337C6.12501 5.95004 5.77501 6.24171 5.30834 6.24171C4.84168 6.24171 4.55001 5.83337 4.55001 5.42504C4.60834 4.95837 4.95834 4.60837 5.36668 4.66671ZM9.62501 8.10837C9.62501 8.34171 9.50834 8.51671 9.39168 8.75004C8.86668 9.56671 7.93334 10.3834 7.00001 10.3834C6.00834 10.3834 5.13334 9.50837 4.60834 8.75004C4.49168 8.57504 4.37501 8.34171 4.37501 8.16671C4.37501 7.99171 4.43334 7.81671 4.60834 7.70004C4.60834 7.58337 4.66668 7.58337 4.66668 7.52504C4.72501 7.46671 4.84168 7.46671 4.90001 7.46671H9.04168C9.15834 7.46671 9.21668 7.46671 9.27501 7.52504C9.27501 7.52504 9.33334 7.52504 9.39168 7.58337L9.45001 7.64171C9.56668 7.75837 9.62501 7.93337 9.62501 8.10837C9.62501 8.05004 9.62501 8.05004 9.62501 8.10837Z" fill="#00C853"/>
<path opacity="0.16" d="M6.18335 5.48341C6.18335 5.01675 5.83335 4.66675 5.36668 4.66675C4.90002 4.66675 4.55002 5.01675 4.55002 5.42508C4.55002 5.89175 4.90002 6.24175 5.30835 6.24175C5.71668 6.24175 6.12502 5.89175 6.18335 5.48341Z" fill="#00C853"/>
<path opacity="0.16" d="M8.63335 6.24175C9.10001 6.24175 9.45002 5.89175 9.45002 5.42508C9.45002 4.95841 9.10001 4.66675 8.63335 4.66675C8.16668 4.66675 7.81668 5.01675 7.81668 5.48341C7.81668 5.95008 8.22501 6.24175 8.63335 6.24175Z" fill="#00C853"/>
<path opacity="0.08" d="M9.62501 8.10836C9.62501 8.05002 9.62501 8.05002 9.62501 8.10836C9.62501 7.93336 9.56668 7.81669 9.45001 7.70002L9.39168 7.64169C9.33335 7.58336 9.33335 7.58336 9.27501 7.58336C9.21668 7.52502 9.10001 7.52502 9.04168 7.52502H4.90001C4.84168 7.52502 4.78335 7.52502 4.66668 7.58336C4.66668 7.58336 4.60835 7.58336 4.55001 7.64169C4.37501 7.75836 4.31668 7.93336 4.31668 8.10836C4.31668 8.28336 4.43335 8.51669 4.55001 8.69169C5.07501 9.50836 6.00835 10.325 6.94168 10.325C7.87501 10.325 8.80835 9.50836 9.33335 8.69169C9.50835 8.51669 9.62501 8.28336 9.62501 8.10836Z" fill="#00C853"/>
</svg>
